<svg xmlns="http://www.w3.org/2000/svg" xml:space="preserve" width="144.9" height="168.1" viewBox="0 0 38.3 44.5"><path d="m123 166-.6-6.4-.3-1.2v-.6l-.2-.6v-.3l-.1-.4-.1-.3-.5-3-.3-1.5-.3.2-.4.2-.9.7-.3.1-1.2.7-2.4 1-1.3.5a16 16 0 0 1-3.9 1h-.3q-.3 0-.7-.2l-.3-.2h-.2l-.4-1v-.3c-.2 0 0-.9.1-1.2l.1-.3q0-.6 1.4-2l.3-.4.3-.3.8-1 .5-.5 1.2-1.1q.3-.2-.3-.2l-.4-.1h-.2q-.2 0-.6-.3h-.3l-.4-.2-1.5-.9-.5-.4c-.5-.5-.6-.7-.8-1.5v-1c0-1 0-1.4.5-2.2v-.2l.2-.2.1-.2.2-.2q0-.2.4-.2l.4-.1h.3l.3-.2h.5q.5-.2 0-.3h-.3l-.1.1h-1q.1-.4.7-.7.7-.4 1.6-.4t1.3.3h.1l.6.6q0 0 .2.3v.7q-.1 0-.5-.2h-.2q-.2.3-.5 0-.4-.4-.3-.1h-.5c0 .2-.7.4-.8.4s-1 .7-1.1 1.1q-.5.6-.3 1.7 0 .6.2 1l1 1 .4.3q.6.4.9.4h.2l.5.2 1.2.6q1 .7-.1 2.4l-.3.3v.1l-1.8 1.9-1.2 1.2q-.6.8-.7 1.4l-.1.3v.1q0 .3.5.3l2-.1.2-.1 1.8-.6 1.2-.6.4-.1.2-.1h.2l.7-.4.2-.2q.2 0 .4-.2l.4-.2.4-.2.3-.2.7-.4.6-.5.5-.4v-.4l-.4-2v-.9q.3-.3 1-.3h.5q.3.4.4 1.2l.1 1 .1.7.2 1.4.2 1.4.2 1.3v.8l.1.7.2.5.2 1.5.2 1.3q.3 1.3.2 4.3l-.3 3.8q0 .4-.4.4zm-10-11.2h-.2zm.3-.1.3-.1 1-.4h.3l3.4-1.5q.5-.2.2-.2h-.4v.1l-.6.2h-.2l-.2.1-.4.2-.4.1-.2.2h-.3l-.2.2h-.2l-.6.3-.7.3-.3.1v.1h-.3l-.3.2q0 .2.1 0m-.7-5.7q0 0-.1 0zm-3.1-4q0-.2-.2-.1h.1m2.9-5.4q0-.1-.3-.1v.1zm-8 17.3v-.4l-.2-.5q0-.4-.3-.8l-.2-.5-.3-1c-.2-.8-.3-1-.3-1.7l-.2-1.4-.2-2.4-.2-4.2q0-.5-.3-.2l-.5.1h-.2l-.9.3-1.9.5-1.6.5-.8.2-1.2.4-3.7 1.2-1 .4-.9.6q0 .1 0 .2-.2 0-.3.2l-.3.2-.2.1q0 .3-.3.2l-.3.2-.2.1-.3.2q-.2.3-.2.5 0 .8.2 1v.3l.5.4.1.1.1.1q0 0 .3.2h.2l.2.2.7.2.2.1c.1.1 2.1.2 2.6.1q.5-.1.7.4.3.3.3 0-.2-.1 0-.4l.6.2q.7.6.7 1-.2.8-1 .6H93a18 18 0 0 1-5-1.1l-.2-.1c-.3 0-1.1-.6-1.1-.8l-.1-.1c-.2 0-.6-.8-.8-1.3q-.7-1.9.3-3l1.8-1.2 3-1.3 3.1-1 5.3-1.5.7-.2.6-.1 1.6-.5h.3v-.4q0-.5.2-.5l.5-.1q.6 0 .7.3l.2.2q.4.5 0 1.2c-.2.4-.2.4 0 .8l.1 2.5.1 1.3v1.4l.3 3.5.1 1 .3 2.4q0 .6-.2.7v.1q0 0-.2.3zm-13.7-3q-.1 0 0 0m-2.5-5.3zv.1m1.7-1.6h-.2zm12.9-4.8h-.1m10.7-2q-.3 0 0-.1l.2.1q.1.3-.2 0m-13.6-6.6-.2-.2v-.2q-.9-1-1-1.4l-.1-1.3v-.1l.1-.3 1.2-.1h1.2l.4.2q.1.2.5.3.9.4 1 .8 0 .3-.6 0-.4-.3-1.2 0h-.7q-.4.2 0 .2v1.2q-.2 1-.4 1.1zm-1-3.4h-.1" style="fill:#111b70;fill-opacity:1" transform="translate(-85.6 -130)"/><text xml:space="preserve" x="85.4" y="174.4" style="font-size:6.45255px;line-height:9.25296px;font-family:&quot;Playfair Display&quot;;-inkscape-font-specification:&quot;Playfair Display, Normal&quot;;letter-spacing:0;writing-mode:lr-tb;direction:ltr;fill:#111b70;fill-opacity:1;stroke:none;stroke-width:1.45183;stroke-linecap:round" transform="translate(-85.6 -130)"><tspan x="85.4" y="174.4" style="fill:#111b70;fill-opacity:1;stroke:none;stroke-width:1.45183">Tandh Studio</tspan></text></svg>