<?xml version="1.0" encoding="UTF-8" standalone="no"?>
<!-- Created with Inkscape (http://www.inkscape.org/) -->

<svg
   width="52.916668mm"
   height="52.916668mm"
   viewBox="0 0 52.916668 52.916669"
   version="1.1"
   id="svg1"
   xml:space="preserve"
   inkscape:version="1.4.2 (ebf0e94, 2025-05-08)"
   sodipodi:docname="logo.svg"
   xmlns:inkscape="http://www.inkscape.org/namespaces/inkscape"
   xmlns:sodipodi="http://sodipodi.sourceforge.net/DTD/sodipodi-0.dtd"
   xmlns="http://www.w3.org/2000/svg"
   xmlns:svg="http://www.w3.org/2000/svg"><sodipodi:namedview
     id="namedview1"
     pagecolor="#ffffff"
     bordercolor="#000000"
     borderopacity="0.25"
     inkscape:showpageshadow="2"
     inkscape:pageopacity="0.0"
     inkscape:pagecheckerboard="0"
     inkscape:deskcolor="#d1d1d1"
     inkscape:document-units="mm"
     inkscape:zoom="0.74671794"
     inkscape:cx="-95.082756"
     inkscape:cy="166.72962"
     inkscape:window-width="1366"
     inkscape:window-height="699"
     inkscape:window-x="0"
     inkscape:window-y="0"
     inkscape:window-maximized="1"
     inkscape:current-layer="layer1" /><defs
     id="defs1" /><g
     inkscape:label="Layer 1"
     inkscape:groupmode="layer"
     id="layer1"
     transform="translate(-165.98521,-76.302292)"><g
       id="g2"><rect
         style="fill:#ffffff;stroke-width:0.241106"
         id="rect1"
         width="52.916668"
         height="52.916668"
         x="165.98521"
         y="76.302292" /><g
         id="g1"
         transform="matrix(0.95946894,0,0,0.95946894,91.571596,-43.258593)"><path
           style="fill:#111b70;fill-opacity:1"
           d="m 123.04371,166.05938 c -0.043,-0.46346 -0.13059,-1.51832 -0.19475,-2.34412 -0.20864,-2.68547 -0.29802,-3.49794 -0.45419,-4.12889 -0.0845,-0.34135 -0.16815,-0.74228 -0.18589,-0.89096 -0.0178,-0.14867 -0.0578,-0.30112 -0.0891,-0.33877 -0.0312,-0.0377 -0.076,-0.28832 -0.0994,-0.55703 -0.0234,-0.26871 -0.0634,-0.51614 -0.0888,-0.54984 -0.0255,-0.0337 -0.0663,-0.21297 -0.0907,-0.39835 -0.0244,-0.18538 -0.065,-0.36464 -0.0902,-0.39835 -0.0252,-0.0337 -0.0629,-0.14402 -0.0838,-0.24513 -0.0209,-0.10112 -0.0768,-0.36311 -0.1241,-0.58221 -0.0706,-0.32694 -0.17671,-1.14442 -0.17289,-1.33231 5.2e-4,-0.0256 -0.0259,-0.079 -0.0588,-0.11858 -0.0329,-0.0396 -0.1017,-0.50842 -0.15297,-1.04183 -0.0513,-0.53341 -0.10901,-1.0112 -0.12831,-1.06176 -0.0193,-0.0506 -0.0464,-0.16038 -0.0603,-0.24403 -0.0139,-0.0837 -0.0345,-0.16139 -0.0459,-0.17275 -0.0113,-0.0113 -0.15763,0.0778 -0.32506,0.19807 -0.16744,0.12029 -0.33561,0.21871 -0.37371,0.21871 -0.0381,0 -0.0693,0.0267 -0.0693,0.0594 0,0.0738 -0.60937,0.52837 -0.84047,0.62694 -0.0939,0.0401 -0.21338,0.10806 -0.26552,0.15113 -0.0835,0.0689 -0.33721,0.21129 -0.85511,0.4797 -0.0843,0.0437 -0.27731,0.13502 -0.42899,0.20301 -0.15167,0.068 -0.42785,0.19501 -0.61372,0.28229 -0.18587,0.0873 -0.38209,0.15867 -0.43604,0.15867 -0.054,0 -0.16823,0.0552 -0.25393,0.12257 -0.0857,0.0674 -0.1763,0.12257 -0.20133,0.12257 -0.025,0 -0.19994,0.0718 -0.38868,0.15963 -0.18874,0.0878 -0.39833,0.18431 -0.46574,0.21447 -0.19943,0.0892 -0.8457,0.30629 -1.01119,0.33966 -0.0843,0.017 -0.20837,0.0559 -0.27578,0.0864 -0.0674,0.0305 -0.3559,0.14021 -0.64109,0.24375 -0.28519,0.10353 -0.54718,0.21175 -0.5822,0.24047 -0.035,0.0287 -0.1719,0.0693 -0.30418,0.0901 -0.13228,0.0208 -0.27706,0.0682 -0.32174,0.10526 -0.0447,0.0371 -0.0812,0.0499 -0.0812,0.0285 0,-0.0214 -0.0953,8.7e-4 -0.21188,0.0496 -0.17421,0.0728 -0.77915,0.1875 -1.61133,0.30555 -0.0758,0.0108 -0.13789,-0.004 -0.13789,-0.0332 0,-0.029 -0.1526,-0.0528 -0.3391,-0.0528 -0.24435,0 -0.42843,-0.045 -0.65881,-0.16124 -0.17583,-0.0887 -0.33349,-0.18033 -0.35034,-0.20365 -0.0169,-0.0233 -0.077,-0.0594 -0.13358,-0.0803 -0.13121,-0.0483 -0.47927,-0.75648 -0.47927,-0.97513 0,-0.0912 -0.0276,-0.18287 -0.0613,-0.2037 -0.13404,-0.0828 0.0133,-0.92646 0.21121,-1.20895 0.0524,-0.0748 0.0952,-0.21178 0.0952,-0.30447 0,-0.39166 0.51167,-1.14881 1.39422,-2.06314 0.14325,-0.14841 0.26046,-0.28966 0.26046,-0.3139 0,-0.0242 0.14478,-0.18397 0.32174,-0.35497 0.17696,-0.17099 0.40447,-0.40828 0.50559,-0.52731 0.10112,-0.11902 0.25519,-0.29349 0.34238,-0.3877 0.0872,-0.0942 0.29935,-0.35247 0.47145,-0.57392 0.37682,-0.48486 0.95361,-1.02317 1.19595,-1.11616 0.20962,-0.0804 0.0955,-0.15774 -0.29467,-0.19952 -0.21956,-0.0235 -0.41423,-0.0671 -0.43261,-0.0968 -0.0184,-0.0297 -0.11488,-0.0541 -0.21447,-0.0541 -0.17999,0 -0.21718,-0.013 -0.58721,-0.20574 -0.10632,-0.0554 -0.23042,-0.10097 -0.27578,-0.10131 -0.0454,-3.5e-4 -0.20657,-0.0667 -0.35825,-0.14743 -0.15168,-0.0807 -0.45503,-0.23482 -0.67412,-0.3424 -0.2191,-0.10757 -0.48614,-0.26185 -0.59344,-0.34284 -0.10729,-0.081 -0.2107,-0.14725 -0.22979,-0.14725 -0.0191,0 -0.25468,-0.21502 -0.52355,-0.47782 -0.49268,-0.48155 -0.59388,-0.66526 -0.83397,-1.51392 -0.0191,-0.0674 -0.036,-0.50866 -0.0376,-0.98055 -0.004,-1.0602 0.0718,-1.38008 0.51296,-2.17559 0.028,-0.0506 0.0756,-0.14821 0.10573,-0.21701 0.0301,-0.0688 0.099,-0.1618 0.15306,-0.20668 0.0541,-0.0449 0.0983,-0.10618 0.0983,-0.13623 0,-0.0301 0.062,-0.15043 0.13789,-0.26752 0.12724,-0.19643 0.16179,-0.21293 0.44738,-0.21363 0.17021,-4.2e-4 0.33939,-0.0307 0.37595,-0.0672 0.0366,-0.0366 0.17306,-0.0716 0.30335,-0.0779 0.13029,-0.006 0.29205,-0.0426 0.35946,-0.0807 0.0674,-0.0381 0.25357,-0.0889 0.41367,-0.11294 0.39167,-0.0587 0.40278,-0.21359 0.0153,-0.21359 -0.15167,0 -0.27577,0.0207 -0.27577,0.046 0,0.0253 -0.062,0.0499 -0.13789,0.0547 -0.0758,0.005 -0.33783,0.0295 -0.5822,0.0548 -0.41449,0.043 -0.44432,0.0381 -0.44432,-0.0726 0,-0.14317 0.43796,-0.56578 0.73542,-0.70966 0.47335,-0.22895 0.96334,-0.33952 1.67226,-0.37736 0.76442,-0.0408 0.92977,-0.004 1.22921,0.27519 0.0685,0.0638 0.14802,0.11605 0.17669,0.11605 0.0579,0 0.56804,0.49036 0.56861,0.5466 1.9e-4,0.0196 0.0623,0.13538 0.13789,0.25733 0.12588,0.20296 0.18588,0.59811 0.10334,0.68066 -0.0352,0.0351 -0.31492,-0.043 -0.56879,-0.15878 -0.11625,-0.053 -0.15447,-0.0455 -0.20222,0.0398 -0.0861,0.15393 -0.24394,0.12911 -0.48409,-0.0762 -0.23773,-0.2032 -0.38261,-0.24126 -0.32255,-0.0847 0.0332,0.0864 0.007,0.0963 -0.17854,0.0663 -0.12146,-0.0197 -0.24633,-0.007 -0.28271,0.0299 -0.0838,0.0838 -0.67472,0.29248 -0.82822,0.29248 -0.14822,0 -0.8924,0.75212 -1.10773,1.11955 -0.23882,0.40753 -0.36068,1.06533 -0.32271,1.74199 0.0269,0.47984 0.0601,0.61616 0.22368,0.91927 0.17688,0.32775 0.92864,1.12193 1.062,1.12193 0.0308,0 0.17947,0.0833 0.33038,0.18517 0.41926,0.28296 0.73184,0.42767 0.92375,0.42767 0.0957,0 0.20023,0.0233 0.23225,0.0518 0.032,0.0285 0.23748,0.1165 0.45657,0.19563 0.39579,0.14295 0.72558,0.29981 1.19504,0.56841 0.69763,0.39914 0.66214,1.30562 -0.0941,2.40485 -0.10628,0.15446 -0.23199,0.29572 -0.27936,0.31389 -0.0474,0.0182 -0.0861,0.0671 -0.0861,0.10881 0,0.10694 -0.67915,0.83936 -1.70358,1.83719 -0.48199,0.46947 -1.01882,1.03482 -1.19296,1.25633 -0.33527,0.42646 -0.69571,1.09719 -0.7586,1.41163 -0.0208,0.10379 -0.0618,0.20355 -0.0911,0.22169 -0.0294,0.0181 -0.0534,0.0956 -0.0534,0.17222 0,0.20417 0.23581,0.30761 0.59384,0.2605 0.92766,-0.12205 1.42653,-0.1601 1.654,-0.12616 0.14086,0.021 0.29206,0.016 0.33599,-0.0112 0.0439,-0.0271 0.12173,-0.0553 0.17288,-0.0625 0.2624,-0.0369 1.59945,-0.49694 1.68333,-0.57914 0.032,-0.0314 0.0928,-0.0571 0.13514,-0.0571 0.075,0 0.5981,-0.22674 1.21618,-0.52713 0.16853,-0.0819 0.35131,-0.14848 0.40617,-0.14796 0.0549,5.3e-4 0.13407,-0.0404 0.17603,-0.091 0.042,-0.0506 0.12722,-0.0919 0.18947,-0.0919 0.13581,0 0.57083,-0.21937 0.66857,-0.33714 0.0383,-0.0462 0.14893,-0.10137 0.24576,-0.12264 0.0968,-0.0213 0.28774,-0.11957 0.42423,-0.21844 0.13648,-0.0989 0.29336,-0.17976 0.34861,-0.17976 0.0553,0 0.23481,-0.0965 0.39902,-0.2145 0.16421,-0.11797 0.3247,-0.21449 0.35663,-0.21449 0.0721,0 0.6389,-0.3755 0.66685,-0.44181 0.0112,-0.0267 0.0547,-0.0485 0.0966,-0.0485 0.0419,0 0.28929,-0.19707 0.54975,-0.43793 l 0.47357,-0.43792 -0.0381,-0.34345 c -0.0209,-0.1889 -0.0796,-0.57725 -0.13045,-0.86301 -0.0508,-0.28575 -0.10477,-0.61612 -0.11988,-0.73415 -0.0151,-0.11803 -0.0563,-0.32165 -0.0915,-0.45248 -0.0791,-0.29359 -0.0584,-0.70694 0.043,-0.85949 0.16364,-0.24623 0.41701,-0.33722 0.90017,-0.32324 0.26535,0.008 0.49894,0.0466 0.55397,0.0922 0.14386,0.11939 0.27695,0.59464 0.31983,1.14201 0.0211,0.26965 0.091,0.68508 0.15536,0.92317 0.0643,0.2381 0.1178,0.59661 0.11884,0.7967 0.002,0.32515 0.0749,1.01388 0.1428,1.34434 0.0139,0.0674 0.0574,0.38456 0.0968,0.70477 0.0394,0.32021 0.0843,0.65115 0.0999,0.73541 0.13658,0.74126 0.19355,1.14145 0.16832,1.18241 -0.0165,0.0268 -0.002,0.0822 0.032,0.12328 0.0341,0.041 0.0793,0.38954 0.10042,0.77444 0.0212,0.38489 0.052,0.72165 0.0685,0.74835 0.0165,0.0267 0.0835,0.25284 0.14891,0.50254 0.11731,0.44787 0.13608,0.57285 0.21299,1.41852 0.0472,0.51881 0.0652,0.63443 0.21526,1.37889 0.19208,0.95319 0.25519,2.14603 0.22372,4.22862 -0.0266,1.759 -0.10549,3.00966 -0.20494,3.24806 -0.0211,0.0506 -0.0437,0.11951 -0.0503,0.15321 -0.007,0.0337 -0.0193,0.0889 -0.0283,0.12257 -0.0359,0.13403 -0.0453,0.18928 -0.0542,0.31936 -0.0109,0.15772 -0.23317,0.38541 -0.3763,0.38541 -0.0822,0 -0.1118,-0.14102 -0.17682,-0.84266 z m -10.08903,-11.29162 c 0.0208,-0.0337 -0.005,-0.0613 -0.0577,-0.0613 -0.0525,0 -0.0955,0.0276 -0.0955,0.0613 0,0.0337 0.026,0.0613 0.0577,0.0613 0.0317,0 0.0747,-0.0276 0.0955,-0.0613 z m 0.36341,-0.11563 c 0.0185,-0.0299 0.13731,-0.0726 0.26408,-0.0949 0.12677,-0.0223 0.36838,-0.0864 0.53691,-0.14232 0.16853,-0.0559 0.32021,-0.10384 0.33706,-0.10641 0.0169,-0.003 0.0891,-0.0372 0.16048,-0.077 0.0714,-0.0397 0.14456,-0.0576 0.16256,-0.0395 0.018,0.018 0.0837,0.007 0.14595,-0.025 0.0623,-0.0318 0.29247,-0.14116 0.51156,-0.2431 1.26825,-0.59014 1.60149,-0.71222 1.66616,-0.61042 0.0334,0.0526 0.0482,0.0426 0.0489,-0.0333 5.4e-4,-0.0625 0.0726,-0.13471 0.16947,-0.16979 0.0927,-0.0336 0.22487,-0.0896 0.29372,-0.12461 0.0689,-0.035 0.17448,-0.0708 0.23472,-0.0797 0.0602,-0.009 0.12801,-0.0429 0.15059,-0.0756 0.0226,-0.0327 0.15965,-0.0977 0.30459,-0.1444 0.30021,-0.0967 0.44145,-0.23301 0.15928,-0.15375 -0.0977,0.0274 -0.23972,0.0521 -0.31556,0.0549 -0.0758,0.003 -0.13789,0.023 -0.13789,0.045 0,0.0629 -0.31991,0.15677 -0.50416,0.14796 -0.0919,-0.004 -0.17917,0.0234 -0.19391,0.0619 -0.0147,0.0384 -0.11175,0.0868 -0.21557,0.1076 -0.10381,0.0208 -0.30441,0.0936 -0.44576,0.16193 -0.14136,0.0683 -0.29574,0.12417 -0.34308,0.12417 -0.0473,0 -0.15619,0.0551 -0.24189,0.12257 -0.0857,0.0674 -0.20037,0.12344 -0.25481,0.12451 -0.0544,0.001 -0.15251,0.0424 -0.21794,0.0919 -0.0654,0.0495 -0.15562,0.09 -0.20042,0.09 -0.0448,0 -0.30842,0.10657 -0.58581,0.23683 -0.27739,0.13025 -0.60776,0.27028 -0.73416,0.31117 -0.1264,0.0409 -0.22982,0.0998 -0.22982,0.13088 0,0.0311 -0.0382,0.0565 -0.0849,0.0565 -0.0467,0 -0.16391,0.0412 -0.26046,0.0915 -0.0965,0.0504 -0.2238,0.0917 -0.28278,0.0919 -0.059,2.1e-4 -0.10725,0.028 -0.10725,0.0617 0,0.0758 0.16428,0.0812 0.2102,0.007 z m -0.70047,-5.67212 c 0,-0.0149 -0.0276,-0.0441 -0.0613,-0.0649 -0.0337,-0.0208 -0.0613,-0.009 -0.0613,0.027 0,0.0357 0.0276,0.0649 0.0613,0.0649 0.0337,0 0.0613,-0.0122 0.0613,-0.027 z m -3.1255,-4.04476 c 0,-0.0647 -0.11761,-0.0919 -0.15259,-0.0353 -0.0212,0.0343 0.004,0.0623 0.0571,0.0623 0.0525,0 0.0955,-0.0122 0.0955,-0.027 z m 2.88036,-5.2972 c 0,-0.0943 -0.17574,-0.20361 -0.25174,-0.15664 -0.0528,0.0326 -0.0417,0.0684 0.0397,0.12784 0.13,0.0951 0.21207,0.1062 0.21207,0.0288 z m -7.96696,17.24615 c 0,-0.0494 -0.0397,-0.20795 -0.0882,-0.35238 -0.0485,-0.14443 -0.1012,-0.37291 -0.11706,-0.50774 -0.0392,-0.33276 -0.0905,-0.4837 -0.29458,-0.86617 -0.0958,-0.1796 -0.17426,-0.36358 -0.17426,-0.40884 0,-0.0453 -0.14053,-0.50771 -0.31229,-1.02767 -0.26902,-0.8144 -0.31996,-1.04728 -0.36762,-1.68079 -0.0304,-0.40448 -0.0835,-0.87044 -0.11797,-1.03546 -0.0344,-0.16502 -0.0485,-0.31416 -0.0313,-0.33142 0.0173,-0.0173 0.008,-0.0615 -0.0213,-0.0983 -0.0553,-0.0703 -0.12808,-0.85095 -0.1661,-1.78288 -0.0124,-0.30336 -0.0237,-0.55156 -0.0251,-0.55156 -0.003,0 -0.0414,-0.67184 -0.0885,-1.56275 -0.0205,-0.38762 -0.0676,-1.09801 -0.10473,-1.57864 -0.0371,-0.48062 -0.0502,-0.98226 -0.029,-1.11473 0.0485,-0.30315 -0.019,-0.34538 -0.3125,-0.19564 -0.12781,0.0652 -0.31491,0.12726 -0.41577,0.13789 -0.10086,0.0106 -0.21096,0.0385 -0.24467,0.0619 -0.0337,0.0234 -0.41979,0.12894 -0.85798,0.23448 -0.43818,0.10553 -0.920792,0.23233 -1.072472,0.28176 -0.15168,0.0494 -0.33961,0.0897 -0.41763,0.0896 -0.078,-1.7e-4 -0.27106,0.052 -0.42899,0.11599 -0.26635,0.10787 -1.10824,0.35227 -1.39026,0.40358 -0.0674,0.0123 -0.12257,0.0265 -0.12257,0.0315 0,0.005 -0.0689,0.0215 -0.15321,0.0364 -0.0843,0.0149 -0.40141,0.10842 -0.70477,0.20778 -0.30335,0.0993 -0.8687,0.26302 -1.25632,0.36371 -1.01315,0.26317 -2.54169,0.77775 -2.85409,0.96082 -0.14726,0.0863 -0.30033,0.13677 -0.34016,0.11216 -0.0398,-0.0246 -0.1027,-0.004 -0.13972,0.0466 -0.037,0.0503 -0.18896,0.10761 -0.33765,0.12743 -0.14881,0.0198 -0.61715,0.20922 -1.04183,0.4213 -0.71839,0.35875 -0.99153,0.5465 -0.86258,0.59292 0.0817,0.0294 -0.002,0.19522 -0.0989,0.19522 -0.0467,0 -0.15861,0.0827 -0.24871,0.18385 -0.0901,0.10112 -0.19875,0.18385 -0.24144,0.18385 -0.0427,0 -0.1321,0.0765 -0.19868,0.17002 -0.0732,0.10283 -0.18605,0.1754 -0.2855,0.18363 -0.0904,0.007 -0.24203,0.0689 -0.33688,0.1364 -0.0948,0.0675 -0.19577,0.12513 -0.22427,0.12798 -0.0285,0.003 -0.14772,0.11656 -0.26492,0.25269 -0.16908,0.19637 -0.21304,0.29974 -0.2128,0.5004 5e-4,0.41906 0.0741,0.824 0.17625,0.96985 0.053,0.0757 0.0972,0.1798 0.0982,0.23129 0.002,0.10974 0.33482,0.49196 0.42825,0.49196 0.0352,0 0.0799,0.0414 0.0994,0.0919 0.0194,0.0506 0.07,0.0919 0.11238,0.0919 0.0424,0 0.15045,0.0577 0.2401,0.12822 0.0897,0.0705 0.19954,0.13357 0.2442,0.14013 0.0447,0.007 0.14739,0.0546 0.22829,0.10685 0.16543,0.10676 0.35318,0.16788 0.66801,0.21746 0.11797,0.0186 0.22968,0.0579 0.24824,0.0874 0.0734,0.11669 2.10404,0.20291 2.55729,0.10858 0.32969,-0.0686 0.55965,0.038 0.73952,0.34285 0.1418,0.24034 0.25458,0.28205 0.25458,0.0942 0,-0.0674 -0.0295,-0.12257 -0.0656,-0.12257 -0.1392,0 -0.023,-0.27449 0.14038,-0.33172 0.14673,-0.0514 0.20929,-0.0255 0.52091,0.21545 0.39461,0.30512 0.75251,0.78737 0.75251,1.01397 0,0.434 -0.61995,0.78722 -1.0878,0.61978 -0.10954,-0.0392 -0.19917,-0.0869 -0.19917,-0.10607 0,-0.0191 -0.19994,-0.0349 -0.44431,-0.035 -0.49437,-2.1e-4 -2.11092,-0.1797 -2.42073,-0.26878 -0.10954,-0.0315 -0.19917,-0.042 -0.19917,-0.0234 0,0.0186 -0.0391,0.001 -0.0868,-0.0382 -0.0477,-0.0396 -0.32067,-0.0961 -0.60653,-0.12565 -0.28585,-0.0295 -0.66736,-0.11343 -0.84779,-0.18654 -0.18044,-0.0731 -0.43837,-0.1768 -0.5732,-0.23042 -0.13483,-0.0536 -0.28868,-0.13368 -0.34189,-0.17792 -0.0532,-0.0442 -0.13031,-0.0804 -0.17134,-0.0804 -0.22059,0 -1.1108,-0.62368 -1.1108,-0.77823 0,-0.046 -0.0406,-0.0992 -0.0901,-0.11818 -0.14108,-0.0541 -0.5558,-0.75309 -0.7629,-1.28575 -0.47548,-1.22298 -0.37394,-2.24576 0.29028,-2.9238 0.32209,-0.32881 0.98029,-0.8337 1.26753,-0.9723 0.13482,-0.0651 0.35545,-0.18368 0.49027,-0.26358 0.45802,-0.27146 1.53088,-0.78105 1.8377,-0.87288 0.16808,-0.0503 0.36037,-0.12982 0.42731,-0.17671 0.0669,-0.0469 0.15905,-0.0853 0.20469,-0.0853 0.0456,0 0.30839,-0.0937 0.58388,-0.20829 0.43186,-0.17958 2.6588,-0.84875 3.10549,-0.93316 0.32765,-0.0619 2.03223,-0.56159 2.911,-0.85332 0.23595,-0.0783 0.73235,-0.22951 1.10312,-0.33597 0.37077,-0.10645 0.9499,-0.27269 1.28697,-0.36941 0.33706,-0.0967 0.667902,-0.17684 0.735202,-0.17803 0.0673,-0.001 0.32929,-0.068 0.5822,-0.14852 1.03505,-0.32939 1.26962,-0.39563 1.54764,-0.43705 l 0.2911,-0.0434 v -0.38721 c 0,-0.36205 0.0122,-0.39591 0.18767,-0.52086 0.15647,-0.11141 0.25098,-0.1296 0.56837,-0.10939 0.36626,0.0233 0.70803,0.17831 0.71285,0.32326 0.001,0.0319 0.077,0.13634 0.16887,0.23218 0.24762,0.25846 0.25041,0.68886 0.008,1.2105 -0.18221,0.39187 -0.18289,0.39735 -0.0908,0.73407 0.0953,0.34858 0.22294,1.89097 0.21068,2.54549 -0.004,0.20224 0.0257,0.78137 0.0655,1.28697 0.0398,0.5056 0.0684,1.11231 0.0636,1.34825 -0.0131,0.64184 0.11441,2.54314 0.18696,2.78803 0.0349,0.11775 0.0634,0.43884 0.0634,0.71354 0,0.27469 0.0403,0.70233 0.0896,0.95031 0.0875,0.44009 0.20859,1.62424 0.25182,2.4625 0.0205,0.39782 -0.0358,0.61651 -0.18824,0.73084 -0.0392,0.0294 -0.033,0.0643 0.0174,0.0968 0.11102,0.0718 0.04,0.21141 -0.15328,0.30152 -0.21697,0.10115 -0.32375,0.0968 -0.32375,-0.0132 z m -10.357042,-2.668 c 0,-0.0337 -0.0122,-0.0613 -0.027,-0.0613 -0.0149,0 -0.0441,0.0276 -0.0649,0.0613 -0.0208,0.0337 -0.009,0.0613 0.027,0.0613 0.0357,0 0.0649,-0.0276 0.0649,-0.0613 z m -3.32594,-0.34345 c -0.0204,-0.0204 -0.0732,-0.0225 -0.11746,-0.005 -0.0489,0.0196 -0.0344,0.0341 0.037,0.037 0.0646,0.003 0.1008,-0.0118 0.0804,-0.0322 z m 3.11145,-0.2694 c 0.0208,-0.0337 0.009,-0.0613 -0.027,-0.0613 -0.0357,0 -0.0649,0.0276 -0.0649,0.0613 0,0.0337 0.0122,0.0613 0.027,0.0613 0.0149,0 0.0441,-0.0276 0.0649,-0.0613 z m -5.66879,-4.96402 c 0,-0.0337 -0.0276,-0.0613 -0.0613,-0.0613 -0.0337,0 -0.0613,0.0276 -0.0613,0.0613 0,0.0337 0.0276,0.0613 0.0613,0.0613 0.0337,0 0.0613,-0.0276 0.0613,-0.0613 z m 1.77724,-1.64894 c 0,-0.0305 -0.0552,-0.0411 -0.12257,-0.0235 -0.0674,0.0176 -0.12257,0.0426 -0.12257,0.0555 0,0.0129 0.0552,0.0235 0.12257,0.0235 0.0674,0 0.12257,-0.025 0.12257,-0.0556 z m 12.808412,-4.78591 c 0,-0.0337 -0.0276,-0.0613 -0.0613,-0.0613 -0.0337,0 -0.0613,0.0276 -0.0613,0.0613 0,0.0337 0.0276,0.0613 0.0613,0.0613 0.0337,0 0.0613,-0.0276 0.0613,-0.0613 z m 10.70636,-1.91078 c -0.19126,-0.0697 -0.19193,-0.19363 -0.001,-0.22192 0.0786,-0.0117 0.16156,0.0389 0.22643,0.13789 0.11363,0.17341 0.0673,0.1907 -0.22523,0.084 z m -13.550632,-6.67372 c -0.0873,-0.1037 -0.15866,-0.2138 -0.15866,-0.24467 0,-0.0309 -0.0529,-0.11837 -0.11748,-0.19447 -0.39378,-0.46376 -0.94758,-1.20123 -1.00064,-1.33252 -0.0836,-0.20697 -0.11936,-1.34913 -0.0422,-1.34913 0.0327,0 0.0436,-0.0633 0.0242,-0.14057 -0.0244,-0.0973 0.005,-0.17713 0.0959,-0.25928 0.11697,-0.10585 0.24173,-0.12045 1.15255,-0.1349 0.561772,-0.009 1.108662,-0.002 1.215322,0.0159 0.10678,0.0177 0.28578,0.12419 0.39834,0.23701 0.11244,0.11269 0.34231,0.25503 0.51085,0.31632 0.50883,0.18504 0.9499,0.55188 0.9499,0.79004 0,0.20862 -0.20066,0.20852 -0.5079,-2.5e-4 -0.32532,-0.22106 -0.71896,-0.25388 -1.2134,-0.10116 -0.22081,0.0682 -0.53029,0.14332 -0.68772,0.16693 -0.26731,0.0401 -0.34973,0.15176 -0.112,0.15176 0.14941,0 0.15895,0.31842 0.0362,1.20638 -0.0948,0.68548 -0.21174,1.06114 -0.33033,1.06114 -0.0298,0 -0.125662,-0.0849 -0.212922,-0.18856 z m -1.07792,-3.43083 c 0,-0.0317 -0.0276,-0.0577 -0.0613,-0.0577 -0.0337,0 -0.0613,0.043 -0.0613,0.0955 0,0.0525 0.0276,0.0785 0.0613,0.0577 0.0337,-0.0208 0.0613,-0.0638 0.0613,-0.0955 z"
           id="path1" /><text
           xml:space="preserve"
           style="font-size:6.45255px;line-height:9.25296px;font-family:'Playfair Display';-inkscape-font-specification:'Playfair Display, Normal';letter-spacing:0px;writing-mode:lr-tb;direction:ltr;fill:#111b70;fill-opacity:1;stroke:none;stroke-width:1.45183;stroke-linecap:round"
           x="85.420624"
           y="174.35002"
           id="text1"><tspan
             sodipodi:role="line"
             id="tspan1"
             style="fill:#111b70;fill-opacity:1;stroke:none;stroke-width:1.45183"
             x="85.420624"
             y="174.35002">Tandh Studio</tspan></text></g></g></g></svg>
